<?xml version="1.0" encoding="UTF-8"?>
<svg xmlns="http://www.w3.org/2000/svg" xmlns:xlink="http://www.w3.org/1999/xlink" width="13pt" height="13pt" viewBox="0 0 15 15" version="1.1">
<g id="surface1">
<path style=" stroke:none;fill-rule:nonzero;fill:rgb(0,0,0);fill-opacity:1;" d="M 6.5 1.5 C 3.746094 1.5 1.5 3.746094 1.5 6.5 C 1.5 9.253906 3.746094 11.5 6.5 11.5 C 7.699219 11.5 8.796875 11.074219 9.660156 10.367188 L 12.648438 13.351562 C 12.773438 13.484375 12.957031 13.535156 13.132812 13.492188 C 13.308594 13.445312 13.445312 13.308594 13.492188 13.132812 C 13.535156 12.957031 13.484375 12.773438 13.351562 12.648438 L 10.367188 9.660156 C 11.074219 8.796875 11.5 7.699219 11.5 6.5 C 11.5 3.746094 9.253906 1.5 6.5 1.5 Z M 6.5 2.5 C 8.714844 2.5 10.5 4.285156 10.5 6.5 C 10.5 8.714844 8.714844 10.5 6.5 10.5 C 4.285156 10.5 2.5 8.714844 2.5 6.5 C 2.5 4.285156 4.285156 2.5 6.5 2.5 Z M 6.5 2.5 "/>
</g>
</svg>
